solid OpenSCAD_Model
  facet normal -1 0 0
    outer loop
      vertex -25.55 10.5 -2.33147e-15
      vertex -25.55 -5.62263 1.24847e-15
      vertex -25.55 10.5 3
    endloop
  endfacet
  facet normal -1 0 0
    outer loop
      vertex -25.55 10.5 3
      vertex -25.55 -5.62263 1.24847e-15
      vertex -25.55 -5.62263 3
    endloop
  endfacet
  facet normal 0 -2.22045e-16 -1
    outer loop
      vertex -17.95 4.68357 -1.03996e-15
      vertex -14.9258 10.5 -2.33147e-15
      vertex -13.0665 8.43509 -1.87297e-15
    endloop
  endfacet
  facet normal 0 -2.22045e-16 -1
    outer loop
      vertex -17.95 2.31643 -5.14351e-16
      vertex -13.0665 8.43509 -1.87297e-15
      vertex -8.5 5.11731 -1.13627e-15
    endloop
  endfacet
  facet normal 0 -2.22045e-16 -1
    outer loop
      vertex -8.5 5.11731 -1.13627e-15
      vertex -3.34346 2.82147 -6.26493e-16
      vertex -25.55 -5.62263 1.24847e-15
    endloop
  endfacet
  facet normal 0 -2.22045e-16 -1
    outer loop
      vertex -3.34346 2.82147 -6.26493e-16
      vertex 2.17773 1.64791 -3.65909e-16
      vertex -25.55 -5.62263 1.24847e-15
    endloop
  endfacet
  facet normal 0 -2.22045e-16 -1
    outer loop
      vertex 2.17773 1.64791 -3.65909e-16
      vertex 7.82227 1.64791 -3.65909e-16
      vertex -25.55 -5.62263 1.24847e-15
    endloop
  endfacet
  facet normal 0 -2.22045e-16 -1
    outer loop
      vertex 7.82227 1.64791 -3.65909e-16
      vertex 13.3435 2.82147 -6.26493e-16
      vertex -25.55 -5.62263 1.24847e-15
    endloop
  endfacet
  facet normal 0 -2.22045e-16 -1
    outer loop
      vertex 18.5 5.11731 -1.13627e-15
      vertex 35.5 10.5 -2.33147e-15
      vertex 13.3435 2.82147 -6.26493e-16
    endloop
  endfacet
  facet normal 0 -2.22045e-16 -1
    outer loop
      vertex 23.0665 8.43509 -1.87297e-15
      vertex 24.9258 10.5 -2.33147e-15
      vertex 35.5 10.5 -2.33147e-15
    endloop
  endfacet
  facet normal 0 -2.22045e-16 -1
    outer loop
      vertex 23.0665 8.43509 -1.87297e-15
      vertex 35.5 10.5 -2.33147e-15
      vertex 18.5 5.11731 -1.13627e-15
    endloop
  endfacet
  facet normal 0 -2.22045e-16 -1
    outer loop
      vertex 30.8843 -1.86925 4.15057e-16
      vertex 35.5 10.5 -2.33147e-15
      vertex 35.5 -5.64083 1.25252e-15
    endloop
  endfacet
  facet normal 0 -2.22045e-16 -1
    outer loop
      vertex 26.1774 -7.36836 1.6361e-15
      vertex 35.5 -5.64083 1.25252e-15
      vertex 5 -16.7419 3.71745e-15
    endloop
  endfacet
  facet normal 0 -2.22045e-16 -1
    outer loop
      vertex -25.55 10.5 -2.33147e-15
      vertex -14.9258 10.5 -2.33147e-15
      vertex -22.05 4.68357 -1.03996e-15
    endloop
  endfacet
  facet normal 0 -2.22045e-16 -1
    outer loop
      vertex -25.55 10.5 -2.33147e-15
      vertex -22.05 4.68357 -1.03996e-15
      vertex -25.55 -5.62263 1.24847e-15
    endloop
  endfacet
  facet normal 0 -2.22045e-16 -1
    outer loop
      vertex 14.0106 -6.64439 1.47535e-15
      vertex -25.55 -5.62263 1.24847e-15
      vertex 13.8442 -3.74489 8.31533e-16
    endloop
  endfacet
  facet normal 0 -2.22045e-16 -1
    outer loop
      vertex -22.05 4.68357 -1.03996e-15
      vertex -22.05 2.31643 -5.14351e-16
      vertex -25.55 -5.62263 1.24847e-15
    endloop
  endfacet
  facet normal 0 -2.22045e-16 -1
    outer loop
      vertex -17.95 2.31643 -5.14351e-16
      vertex -25.55 -5.62263 1.24847e-15
      vertex -20 1.13286 -2.51546e-16
    endloop
  endfacet
  facet normal 0 -2.22045e-16 -1
    outer loop
      vertex -17.95 4.68357 -1.03996e-15
      vertex -13.0665 8.43509 -1.87297e-15
      vertex -17.95 2.31643 -5.14351e-16
    endloop
  endfacet
  facet normal 0 -2.22045e-16 -1
    outer loop
      vertex -25.55 -5.62263 1.24847e-15
      vertex -17.95 2.31643 -5.14351e-16
      vertex -8.5 5.11731 -1.13627e-15
    endloop
  endfacet
  facet normal 0 -2.22045e-16 -1
    outer loop
      vertex -20 5.86714 -1.30277e-15
      vertex -14.9258 10.5 -2.33147e-15
      vertex -17.95 4.68357 -1.03996e-15
    endloop
  endfacet
  facet normal 0 -2.22045e-16 -1
    outer loop
      vertex -22.05 4.68357 -1.03996e-15
      vertex -14.9258 10.5 -2.33147e-15
      vertex -20 5.86714 -1.30277e-15
    endloop
  endfacet
  facet normal 0 -2.22045e-16 -1
    outer loop
      vertex 30.8843 -1.86925 4.15057e-16
      vertex 35.5 -5.64083 1.25252e-15
      vertex 31.0507 -4.76874 1.05887e-15
    endloop
  endfacet
  facet normal 0 -2.22045e-16 -1
    outer loop
      vertex 13.3435 2.82147 -6.26493e-16
      vertex 13.8442 -3.74489 8.31533e-16
      vertex -25.55 -5.62263 1.24847e-15
    endloop
  endfacet
  facet normal 0 -2.22045e-16 -1
    outer loop
      vertex 31.0507 -4.76874 1.05887e-15
      vertex 35.5 -5.64083 1.25252e-15
      vertex 26.1774 -7.36836 1.6361e-15
    endloop
  endfacet
  facet normal 0 -2.22045e-16 -1
    outer loop
      vertex -25.55 -5.62263 1.24847e-15
      vertex 14.0106 -6.64439 1.47535e-15
      vertex 5 -16.7419 3.71745e-15
    endloop
  endfacet
  facet normal 0 -2.22045e-16 -1
    outer loop
      vertex 14.0106 -6.64439 1.47535e-15
      vertex 19.1191 -8.14528 1.80862e-15
      vertex 5 -16.7419 3.71745e-15
    endloop
  endfacet
  facet normal 0 -2.22045e-16 -1
    outer loop
      vertex 19.1191 -8.14528 1.80862e-15
      vertex 26.1774 -7.36836 1.6361e-15
      vertex 5 -16.7419 3.71745e-15
    endloop
  endfacet
  facet normal 0 -2.22045e-16 -1
    outer loop
      vertex 32.05 2.31643 -5.14351e-16
      vertex 35.5 10.5 -2.33147e-15
      vertex 30.8843 -1.86925 4.15057e-16
    endloop
  endfacet
  facet normal 0 -2.22045e-16 -1
    outer loop
      vertex 18.7175 -1.14528 2.54303e-16
      vertex 13.3435 2.82147 -6.26493e-16
      vertex 25.7757 -0.36836 8.17924e-17
    endloop
  endfacet
  facet normal 0 -2.22045e-16 -1
    outer loop
      vertex 30 1.13286 -2.51546e-16
      vertex 25.7757 -0.36836 8.17924e-17
      vertex 27.95 2.31643 -5.14351e-16
    endloop
  endfacet
  facet normal 0 -2.22045e-16 -1
    outer loop
      vertex 13.3435 2.82147 -6.26493e-16
      vertex 18.7175 -1.14528 2.54303e-16
      vertex 13.8442 -3.74489 8.31533e-16
    endloop
  endfacet
  facet normal 0 -2.22045e-16 -1
    outer loop
      vertex 13.3435 2.82147 -6.26493e-16
      vertex 35.5 10.5 -2.33147e-15
      vertex 27.95 4.68357 -1.03996e-15
    endloop
  endfacet
  facet normal 0 -2.22045e-16 -1
    outer loop
      vertex 13.3435 2.82147 -6.26493e-16
      vertex 27.95 4.68357 -1.03996e-15
      vertex 25.7757 -0.36836 8.17924e-17
    endloop
  endfacet
  facet normal 0 -2.22045e-16 -1
    outer loop
      vertex 27.95 4.68357 -1.03996e-15
      vertex 27.95 2.31643 -5.14351e-16
      vertex 25.7757 -0.36836 8.17924e-17
    endloop
  endfacet
  facet normal 0 -2.22045e-16 -1
    outer loop
      vertex 30 5.86714 -1.30277e-15
      vertex 35.5 10.5 -2.33147e-15
      vertex 32.05 4.68357 -1.03996e-15
    endloop
  endfacet
  facet normal 0 -2.22045e-16 -1
    outer loop
      vertex 25.7757 -0.36836 8.17924e-17
      vertex 30 1.13286 -2.51546e-16
      vertex 30.8843 -1.86925 4.15057e-16
    endloop
  endfacet
  facet normal 0 -2.22045e-16 -1
    outer loop
      vertex 30 1.13286 -2.51546e-16
      vertex 32.05 2.31643 -5.14351e-16
      vertex 30.8843 -1.86925 4.15057e-16
    endloop
  endfacet
  facet normal 0 -2.22045e-16 -1
    outer loop
      vertex 32.05 4.68357 -1.03996e-15
      vertex 35.5 10.5 -2.33147e-15
      vertex 32.05 2.31643 -5.14351e-16
    endloop
  endfacet
  facet normal 0 -2.22045e-16 -1
    outer loop
      vertex 27.95 4.68357 -1.03996e-15
      vertex 35.5 10.5 -2.33147e-15
      vertex 30 5.86714 -1.30277e-15
    endloop
  endfacet
  facet normal 0 -2.22045e-16 -1
    outer loop
      vertex -20 1.13286 -2.51546e-16
      vertex -25.55 -5.62263 1.24847e-15
      vertex -22.05 2.31643 -5.14351e-16
    endloop
  endfacet
  facet normal 0 1 -2.22045e-16
    outer loop
      vertex -25.55 10.5 -2.33147e-15
      vertex -25.55 10.5 3
      vertex -14.9258 10.5 -2.33147e-15
    endloop
  endfacet
  facet normal 0 1 -2.22045e-16
    outer loop
      vertex -14.9258 10.5 -2.33147e-15
      vertex -25.55 10.5 3
      vertex -14.9258 10.5 3
    endloop
  endfacet
  facet normal 0 2.22045e-16 1
    outer loop
      vertex -24 1.1906 3
      vertex -25.55 10.5 3
      vertex -25.55 -5.62263 3
    endloop
  endfacet
  facet normal 0 2.22045e-16 1
    outer loop
      vertex -14 3.33067e-16 3
      vertex -14.9258 10.5 3
      vertex -14 -9.82649 3
    endloop
  endfacet
  facet normal 0 2.22045e-16 1
    outer loop
      vertex -13.0665 8.43509 3
      vertex -14.9258 10.5 3
      vertex -14 3.33067e-16 3
    endloop
  endfacet
  facet normal 0 2.22045e-16 1
    outer loop
      vertex 19.1153 -1.17221 3
      vertex 14 3.33067e-16 3
      vertex 14 -1.73526 3
    endloop
  endfacet
  facet normal 0 2.22045e-16 1
    outer loop
      vertex -20 -1.1188 3
      vertex -24 1.1906 3
      vertex -25.55 -5.62263 3
    endloop
  endfacet
  facet normal 0 2.22045e-16 1
    outer loop
      vertex 35.5 -5.64083 3
      vertex 24.2238 -2.6731 3
      vertex 24.3902 -5.57259 3
    endloop
  endfacet
  facet normal 0 2.22045e-16 1
    outer loop
      vertex 14 -13.4662 3
      vertex 24.3902 -5.57259 3
      vertex 19.5169 -8.17221 3
    endloop
  endfacet
  facet normal 0 2.22045e-16 1
    outer loop
      vertex 14 -13.4662 3
      vertex 19.5169 -8.17221 3
      vertex 14 -8.77947 3
    endloop
  endfacet
  facet normal 0 2.22045e-16 1
    outer loop
      vertex 35.5 -5.64083 3
      vertex 24.3902 -5.57259 3
      vertex 14 -13.4662 3
    endloop
  endfacet
  facet normal 0 2.22045e-16 1
    outer loop
      vertex 26 1.1906 3
      vertex 18.5 5.11731 3
      vertex 35.5 -5.64083 3
    endloop
  endfacet
  facet normal 0 2.22045e-16 1
    outer loop
      vertex 18.5 5.11731 3
      vertex 13.3435 2.82147 3
      vertex 35.5 -5.64083 3
    endloop
  endfacet
  facet normal 0 2.22045e-16 1
    outer loop
      vertex 14 3.33067e-16 3
      vertex 7.82227 1.64791 3
      vertex -14 3.33067e-16 3
    endloop
  endfacet
  facet normal 0 2.22045e-16 1
    outer loop
      vertex 7.82227 1.64791 3
      vertex 2.17773 1.64791 3
      vertex -14 3.33067e-16 3
    endloop
  endfacet
  facet normal 0 2.22045e-16 1
    outer loop
      vertex 2.17773 1.64791 3
      vertex -3.34346 2.82147 3
      vertex -14 3.33067e-16 3
    endloop
  endfacet
  facet normal 0 2.22045e-16 1
    outer loop
      vertex -3.34346 2.82147 3
      vertex -8.5 5.11731 3
      vertex -14 3.33067e-16 3
    endloop
  endfacet
  facet normal 0 2.22045e-16 1
    outer loop
      vertex -8.5 5.11731 3
      vertex -13.0665 8.43509 3
      vertex -14 3.33067e-16 3
    endloop
  endfacet
  facet normal 0 2.22045e-16 1
    outer loop
      vertex -24 5.8094 3
      vertex -25.55 10.5 3
      vertex -24 1.1906 3
    endloop
  endfacet
  facet normal 0 2.22045e-16 1
    outer loop
      vertex -20 8.1188 3
      vertex -25.55 10.5 3
      vertex -24 5.8094 3
    endloop
  endfacet
  facet normal 0 2.22045e-16 1
    outer loop
      vertex 26 1.1906 3
      vertex 26 5.8094 3
      vertex 23.0665 8.43509 3
    endloop
  endfacet
  facet normal 0 2.22045e-16 1
    outer loop
      vertex -14.9258 10.5 3
      vertex -25.55 10.5 3
      vertex -20 8.1188 3
    endloop
  endfacet
  facet normal 0 2.22045e-16 1
    outer loop
      vertex -20 8.1188 3
      vertex -16 5.8094 3
      vertex -14.9258 10.5 3
    endloop
  endfacet
  facet normal 0 2.22045e-16 1
    outer loop
      vertex -14 -9.82649 3
      vertex -14.9258 10.5 3
      vertex -16 5.8094 3
    endloop
  endfacet
  facet normal 0 2.22045e-16 1
    outer loop
      vertex -14 -9.82649 3
      vertex -16 1.1906 3
      vertex -25.55 -5.62263 3
    endloop
  endfacet
  facet normal 0 2.22045e-16 1
    outer loop
      vertex -14 -9.82649 3
      vertex -16 5.8094 3
      vertex -16 1.1906 3
    endloop
  endfacet
  facet normal 0 2.22045e-16 1
    outer loop
      vertex -16 1.1906 3
      vertex -20 -1.1188 3
      vertex -25.55 -5.62263 3
    endloop
  endfacet
  facet normal 0 2.22045e-16 1
    outer loop
      vertex 30 -1.1188 3
      vertex 26 1.1906 3
      vertex 35.5 -5.64083 3
    endloop
  endfacet
  facet normal 0 2.22045e-16 1
    outer loop
      vertex 23.0665 8.43509 3
      vertex 18.5 5.11731 3
      vertex 26 1.1906 3
    endloop
  endfacet
  facet normal 0 2.22045e-16 1
    outer loop
      vertex 24.9258 10.5 3
      vertex 23.0665 8.43509 3
      vertex 26 5.8094 3
    endloop
  endfacet
  facet normal 0 2.22045e-16 1
    outer loop
      vertex 35.5 10.5 3
      vertex 24.9258 10.5 3
      vertex 30 8.1188 3
    endloop
  endfacet
  facet normal 0 2.22045e-16 1
    outer loop
      vertex 35.5 10.5 3
      vertex 34 5.8094 3
      vertex 35.5 -5.64083 3
    endloop
  endfacet
  facet normal 0 2.22045e-16 1
    outer loop
      vertex 35.5 10.5 3
      vertex 30 8.1188 3
      vertex 34 5.8094 3
    endloop
  endfacet
  facet normal 0 2.22045e-16 1
    outer loop
      vertex 34 5.8094 3
      vertex 34 1.1906 3
      vertex 35.5 -5.64083 3
    endloop
  endfacet
  facet normal 0 2.22045e-16 1
    outer loop
      vertex 26 5.8094 3
      vertex 30 8.1188 3
      vertex 24.9258 10.5 3
    endloop
  endfacet
  facet normal 0 2.22045e-16 1
    outer loop
      vertex 34 1.1906 3
      vertex 30 -1.1188 3
      vertex 35.5 -5.64083 3
    endloop
  endfacet
  facet normal 0 2.22045e-16 1
    outer loop
      vertex 13.3435 2.82147 3
      vertex 24.2238 -2.6731 3
      vertex 35.5 -5.64083 3
    endloop
  endfacet
  facet normal 0 2.22045e-16 1
    outer loop
      vertex 13.3435 2.82147 3
      vertex 19.1153 -1.17221 3
      vertex 24.2238 -2.6731 3
    endloop
  endfacet
  facet normal 0 2.22045e-16 1
    outer loop
      vertex 13.3435 2.82147 3
      vertex 14 3.33067e-16 3
      vertex 19.1153 -1.17221 3
    endloop
  endfacet
  facet normal 0 2.22045e-16 1
    outer loop
      vertex 13.3435 2.82147 3
      vertex 7.82227 1.64791 3
      vertex 14 3.33067e-16 3
    endloop
  endfacet
  facet normal -0.34202 -0.939693 2.08654e-16
    outer loop
      vertex 5 -16.7419 3.71745e-15
      vertex 5 -16.7419 3
      vertex 0.883286 -15.2436 3
    endloop
  endfacet
  facet normal -0.34202 -0.939693 2.08654e-16
    outer loop
      vertex -14 -9.82649 3
      vertex 5 -16.7419 3.71745e-15
      vertex 0 -14.9221 1.12511
    endloop
  endfacet
  facet normal -0.34202 -0.939693 2.08654e-16
    outer loop
      vertex 0 -14.9221 1.12511
      vertex 5 -16.7419 3.71745e-15
      vertex 0.883286 -15.2436 3
    endloop
  endfacet
  facet normal -0.34202 -0.939693 2.08654e-16
    outer loop
      vertex -14 -9.82649 3
      vertex 0 -14.9221 1.12511
      vertex -14 -9.82649 9.24907
    endloop
  endfacet
  facet normal -0.34202 -0.939693 2.08654e-16
    outer loop
      vertex -25.55 -5.62263 3
      vertex 5 -16.7419 3.71745e-15
      vertex -14 -9.82649 3
    endloop
  endfacet
  facet normal -0.34202 -0.939693 2.08654e-16
    outer loop
      vertex -25.55 -5.62263 1.24847e-15
      vertex 5 -16.7419 3.71745e-15
      vertex -25.55 -5.62263 3
    endloop
  endfacet
  facet normal 0.34202 -0.939693 2.08654e-16
    outer loop
      vertex 35.5 -5.64083 1.25252e-15
      vertex 35.5 -5.64083 3
      vertex 14 -13.4662 3
    endloop
  endfacet
  facet normal 0.34202 -0.939693 2.08654e-16
    outer loop
      vertex 12.5334 -14 3
      vertex 35.5 -5.64083 1.25252e-15
      vertex 14 -13.4662 3
    endloop
  endfacet
  facet normal 0.34202 -0.939693 2.08654e-16
    outer loop
      vertex 14 -13.4662 15
      vertex 12.5334 -14 15
      vertex 14 -13.4662 3
    endloop
  endfacet
  facet normal 0.34202 -0.939693 2.08654e-16
    outer loop
      vertex 12.5334 -14 15
      vertex 12.5334 -14 3
      vertex 14 -13.4662 3
    endloop
  endfacet
  facet normal 0.34202 -0.939693 2.08654e-16
    outer loop
      vertex 12.5334 -14 3
      vertex 5 -16.7419 3
      vertex 35.5 -5.64083 1.25252e-15
    endloop
  endfacet
  facet normal 0.34202 -0.939693 2.08654e-16
    outer loop
      vertex 5 -16.7419 3
      vertex 5 -16.7419 3.71745e-15
      vertex 35.5 -5.64083 1.25252e-15
    endloop
  endfacet
  facet normal 1 0 0
    outer loop
      vertex 35.5 10.5 3
      vertex 35.5 -5.64083 3
      vertex 35.5 -5.64083 1.25252e-15
    endloop
  endfacet
  facet normal 1 0 0
    outer loop
      vertex 35.5 10.5 -2.33147e-15
      vertex 35.5 10.5 3
      vertex 35.5 -5.64083 1.25252e-15
    endloop
  endfacet
  facet normal 0 1 -2.22045e-16
    outer loop
      vertex 24.9258 10.5 3
      vertex 35.5 10.5 3
      vertex 24.9258 10.5 -2.33147e-15
    endloop
  endfacet
  facet normal 0 1 -2.22045e-16
    outer loop
      vertex 24.9258 10.5 -2.33147e-15
      vertex 35.5 10.5 3
      vertex 35.5 10.5 -2.33147e-15
    endloop
  endfacet
  facet normal -0.743145 0.669131 -2.97154e-16
    outer loop
      vertex 24.9258 10.5 3
      vertex 24.9258 10.5 -2.33147e-15
      vertex 23.0665 8.43509 3
    endloop
  endfacet
  facet normal -0.743145 0.669131 -2.97154e-16
    outer loop
      vertex 23.0665 8.43509 3
      vertex 24.9258 10.5 -2.33147e-15
      vertex 23.0665 8.43509 -1.87297e-15
    endloop
  endfacet
  facet normal -0.587785 0.809017 -3.59276e-16
    outer loop
      vertex 23.0665 8.43509 3
      vertex 23.0665 8.43509 -1.87297e-15
      vertex 18.5 5.11731 3
    endloop
  endfacet
  facet normal -0.587785 0.809017 -3.59276e-16
    outer loop
      vertex 18.5 5.11731 3
      vertex 23.0665 8.43509 -1.87297e-15
      vertex 18.5 5.11731 -1.13627e-15
    endloop
  endfacet
  facet normal -0.406737 0.913545 -4.05696e-16
    outer loop
      vertex 18.5 5.11731 3
      vertex 18.5 5.11731 -1.13627e-15
      vertex 13.3435 2.82147 3
    endloop
  endfacet
  facet normal -0.406737 0.913545 -4.05696e-16
    outer loop
      vertex 13.3435 2.82147 3
      vertex 18.5 5.11731 -1.13627e-15
      vertex 13.3435 2.82147 -6.26493e-16
    endloop
  endfacet
  facet normal -0.207912 0.978148 -4.34385e-16
    outer loop
      vertex 13.3435 2.82147 3
      vertex 13.3435 2.82147 -6.26493e-16
      vertex 7.82227 1.64791 3
    endloop
  endfacet
  facet normal -0.207912 0.978148 -4.34385e-16
    outer loop
      vertex 7.82227 1.64791 3
      vertex 13.3435 2.82147 -6.26493e-16
      vertex 7.82227 1.64791 -3.65909e-16
    endloop
  endfacet
  facet normal 0 1 -4.44089e-16
    outer loop
      vertex 7.82227 1.64791 3
      vertex 7.82227 1.64791 -3.65909e-16
      vertex 2.17773 1.64791 3
    endloop
  endfacet
  facet normal 0 1 -4.44089e-16
    outer loop
      vertex 2.17773 1.64791 3
      vertex 7.82227 1.64791 -3.65909e-16
      vertex 2.17773 1.64791 -3.65909e-16
    endloop
  endfacet
  facet normal 0.207912 0.978148 -4.34385e-16
    outer loop
      vertex 2.17773 1.64791 3
      vertex 2.17773 1.64791 -3.65909e-16
      vertex -3.34346 2.82147 3
    endloop
  endfacet
  facet normal 0.207912 0.978148 -4.34385e-16
    outer loop
      vertex -3.34346 2.82147 3
      vertex 2.17773 1.64791 -3.65909e-16
      vertex -3.34346 2.82147 -6.26493e-16
    endloop
  endfacet
  facet normal 0.406737 0.913545 -4.05696e-16
    outer loop
      vertex -3.34346 2.82147 3
      vertex -3.34346 2.82147 -6.26493e-16
      vertex -8.5 5.11731 3
    endloop
  endfacet
  facet normal 0.406737 0.913545 -4.05696e-16
    outer loop
      vertex -8.5 5.11731 3
      vertex -3.34346 2.82147 -6.26493e-16
      vertex -8.5 5.11731 -1.13627e-15
    endloop
  endfacet
  facet normal 0.587785 0.809017 -3.59276e-16
    outer loop
      vertex -8.5 5.11731 3
      vertex -8.5 5.11731 -1.13627e-15
      vertex -13.0665 8.43509 3
    endloop
  endfacet
  facet normal 0.587785 0.809017 -3.59276e-16
    outer loop
      vertex -13.0665 8.43509 3
      vertex -8.5 5.11731 -1.13627e-15
      vertex -13.0665 8.43509 -1.87297e-15
    endloop
  endfacet
  facet normal 0.743145 0.669131 -2.97154e-16
    outer loop
      vertex -14.9258 10.5 3
      vertex -13.0665 8.43509 3
      vertex -13.0665 8.43509 -1.87297e-15
    endloop
  endfacet
  facet normal 0.743145 0.669131 -2.97154e-16
    outer loop
      vertex -14.9258 10.5 -2.33147e-15
      vertex -14.9258 10.5 3
      vertex -13.0665 8.43509 -1.87297e-15
    endloop
  endfacet
  facet normal 0.5 -0.866025 3.84593e-16
    outer loop
      vertex -20 5.86714 -1.30277e-15
      vertex -20 5.86714 1.55
      vertex -22.05 4.68357 1.55
    endloop
  endfacet
  facet normal 0.5 -0.866025 3.84593e-16
    outer loop
      vertex -22.05 4.68357 -1.03996e-15
      vertex -20 5.86714 -1.30277e-15
      vertex -22.05 4.68357 1.55
    endloop
  endfacet
  facet normal 1 2.22045e-16 -9.86076e-32
    outer loop
      vertex -22.05 4.68357 1.55
      vertex -22.05 2.31643 1.55
      vertex -22.05 2.31643 -5.14351e-16
    endloop
  endfacet
  facet normal 1 2.22045e-16 -9.86076e-32
    outer loop
      vertex -22.05 4.68357 -1.03996e-15
      vertex -22.05 4.68357 1.55
      vertex -22.05 2.31643 -5.14351e-16
    endloop
  endfacet
  facet normal -0.5 -0.866025 3.84593e-16
    outer loop
      vertex -17.95 4.68357 -1.03996e-15
      vertex -17.95 4.68357 1.55
      vertex -20 5.86714 1.55
    endloop
  endfacet
  facet normal -0.5 -0.866025 3.84593e-16
    outer loop
      vertex -20 5.86714 -1.30277e-15
      vertex -17.95 4.68357 -1.03996e-15
      vertex -20 5.86714 1.55
    endloop
  endfacet
  facet normal -1 -2.22045e-16 9.86076e-32
    outer loop
      vertex -17.95 2.31643 1.55
      vertex -17.95 4.68357 1.55
      vertex -17.95 2.31643 -5.14351e-16
    endloop
  endfacet
  facet normal -1 -2.22045e-16 9.86076e-32
    outer loop
      vertex -17.95 2.31643 -5.14351e-16
      vertex -17.95 4.68357 1.55
      vertex -17.95 4.68357 -1.03996e-15
    endloop
  endfacet
  facet normal -0.5 0.866025 -3.84593e-16
    outer loop
      vertex -17.95 2.31643 1.55
      vertex -17.95 2.31643 -5.14351e-16
      vertex -20 1.13286 1.55
    endloop
  endfacet
  facet normal -0.5 0.866025 -3.84593e-16
    outer loop
      vertex -20 1.13286 1.55
      vertex -17.95 2.31643 -5.14351e-16
      vertex -20 1.13286 -2.51546e-16
    endloop
  endfacet
  facet normal 0.5 0.866025 -3.84593e-16
    outer loop
      vertex -20 1.13286 1.55
      vertex -20 1.13286 -2.51546e-16
      vertex -22.05 2.31643 1.55
    endloop
  endfacet
  facet normal 0.5 0.866025 -3.84593e-16
    outer loop
      vertex -22.05 2.31643 1.55
      vertex -20 1.13286 -2.51546e-16
      vertex -22.05 2.31643 -5.14351e-16
    endloop
  endfacet
  facet normal 0.408218 0.0234232 0.912584
    outer loop
      vertex 4.89075 -7.74505 4.10774
      vertex 14.0106 -6.64439 1.47535e-15
      vertex 13.8442 -3.74489 8.31533e-16
    endloop
  endfacet
  facet normal 0.408218 0.0234232 0.912584
    outer loop
      vertex 4.5736 -4.86376 4.17565
      vertex 4.89075 -7.74505 4.10774
      vertex 13.8442 -3.74489 8.31533e-16
    endloop
  endfacet
  facet normal 0.365998 -0.686106 0.628732
    outer loop
      vertex 13.8442 -3.74489 8.31533e-16
      vertex 18.7175 -1.14528 2.54303e-16
      vertex 5.18629 -2.77835 6.0947
    endloop
  endfacet
  facet normal 0.365998 -0.686106 0.628732
    outer loop
      vertex 4.5736 -4.86376 4.17565
      vertex 13.8442 -3.74489 8.31533e-16
      vertex 5.18629 -2.77835 6.0947
    endloop
  endfacet
  facet normal 0.109382 -0.993724 -0.023423
    outer loop
      vertex 18.7175 -1.14528 2.54303e-16
      vertex 25.7757 -0.36836 8.17924e-17
      vertex 19.1153 -1.17221 3
    endloop
  endfacet
  facet normal 0.109382 -0.993724 -0.023423
    outer loop
      vertex 5.18629 -2.77835 6.0947
      vertex 18.7175 -1.14528 2.54303e-16
      vertex 14 -1.73526 3
    endloop
  endfacet
  facet normal 0.109382 -0.993724 -0.023423
    outer loop
      vertex 14 -1.73526 3
      vertex 18.7175 -1.14528 2.54303e-16
      vertex 19.1153 -1.17221 3
    endloop
  endfacet
  facet normal 0.109382 -0.993724 -0.023423
    outer loop
      vertex 6.36992 -2.71043 8.74074
      vertex 14 -1.73526 3
      vertex 14 -1.78956 5.30401
    endloop
  endfacet
  facet normal 0.109382 -0.993724 -0.023423
    outer loop
      vertex 5.18629 -2.77835 6.0947
      vertex 14 -1.73526 3
      vertex 6.36992 -2.71043 8.74074
    endloop
  endfacet
  facet normal -0.211309 -0.719231 -0.661857
    outer loop
      vertex 25.7757 -0.36836 8.17924e-17
      vertex 30.8843 -1.86925 4.15057e-16
      vertex 24.2238 -2.6731 3
    endloop
  endfacet
  facet normal -0.211309 -0.719231 -0.661857
    outer loop
      vertex 19.1153 -1.17221 3
      vertex 25.7757 -0.36836 8.17924e-17
      vertex 24.2238 -2.6731 3
    endloop
  endfacet
  facet normal -0.408218 -0.0234232 -0.912584
    outer loop
      vertex 31.0507 -4.76874 1.05887e-15
      vertex 24.3902 -5.57259 3
      vertex 30.8843 -1.86925 4.15057e-16
    endloop
  endfacet
  facet normal -0.408218 -0.0234232 -0.912584
    outer loop
      vertex 30.8843 -1.86925 4.15057e-16
      vertex 24.3902 -5.57259 3
      vertex 24.2238 -2.6731 3
    endloop
  endfacet
  facet normal -0.365998 0.686106 -0.628732
    outer loop
      vertex 31.0507 -4.76874 1.05887e-15
      vertex 26.1774 -7.36836 1.6361e-15
      vertex 24.3902 -5.57259 3
    endloop
  endfacet
  facet normal -0.365998 0.686106 -0.628732
    outer loop
      vertex 24.3902 -5.57259 3
      vertex 26.1774 -7.36836 1.6361e-15
      vertex 19.5169 -8.17221 3
    endloop
  endfacet
  facet normal -0.109382 0.993724 0.023423
    outer loop
      vertex 14 -8.83804 5.48492
      vertex 14 -8.77947 3
      vertex 7.13559 -9.6665 8.57678
    endloop
  endfacet
  facet normal -0.109382 0.993724 0.023423
    outer loop
      vertex 26.1774 -7.36836 1.6361e-15
      vertex 14 -8.77947 3
      vertex 19.5169 -8.17221 3
    endloop
  endfacet
  facet normal -0.109382 0.993724 0.023423
    outer loop
      vertex 19.1191 -8.14528 1.80862e-15
      vertex 14 -8.77947 3
      vertex 26.1774 -7.36836 1.6361e-15
    endloop
  endfacet
  facet normal -0.109382 0.993724 0.023423
    outer loop
      vertex 5.95196 -9.73442 5.93074
      vertex 14 -8.77947 3
      vertex 19.1191 -8.14528 1.80862e-15
    endloop
  endfacet
  facet normal -0.109382 0.993724 0.023423
    outer loop
      vertex 7.13559 -9.6665 8.57678
      vertex 14 -8.77947 3
      vertex 5.95196 -9.73442 5.93074
    endloop
  endfacet
  facet normal 0.211309 0.719231 0.661857
    outer loop
      vertex 19.1191 -8.14528 1.80862e-15
      vertex 14.0106 -6.64439 1.47535e-15
      vertex 5.95196 -9.73442 5.93074
    endloop
  endfacet
  facet normal 0.211309 0.719231 0.661857
    outer loop
      vertex 5.95196 -9.73442 5.93074
      vertex 14.0106 -6.64439 1.47535e-15
      vertex 4.89075 -7.74505 4.10774
    endloop
  endfacet
  facet normal 0.5 -0.866025 3.84593e-16
    outer loop
      vertex 30 5.86714 -1.30277e-15
      vertex 30 5.86714 1.55
      vertex 27.95 4.68357 1.55
    endloop
  endfacet
  facet normal 0.5 -0.866025 3.84593e-16
    outer loop
      vertex 27.95 4.68357 -1.03996e-15
      vertex 30 5.86714 -1.30277e-15
      vertex 27.95 4.68357 1.55
    endloop
  endfacet
  facet normal 1 2.22045e-16 -9.86076e-32
    outer loop
      vertex 27.95 4.68357 1.55
      vertex 27.95 2.31643 1.55
      vertex 27.95 2.31643 -5.14351e-16
    endloop
  endfacet
  facet normal 1 2.22045e-16 -9.86076e-32
    outer loop
      vertex 27.95 4.68357 -1.03996e-15
      vertex 27.95 4.68357 1.55
      vertex 27.95 2.31643 -5.14351e-16
    endloop
  endfacet
  facet normal -0.5 -0.866025 3.84593e-16
    outer loop
      vertex 32.05 4.68357 -1.03996e-15
      vertex 32.05 4.68357 1.55
      vertex 30 5.86714 1.55
    endloop
  endfacet
  facet normal -0.5 -0.866025 3.84593e-16
    outer loop
      vertex 30 5.86714 -1.30277e-15
      vertex 32.05 4.68357 -1.03996e-15
      vertex 30 5.86714 1.55
    endloop
  endfacet
  facet normal -1 -2.22045e-16 9.86076e-32
    outer loop
      vertex 32.05 2.31643 1.55
      vertex 32.05 4.68357 1.55
      vertex 32.05 2.31643 -5.14351e-16
    endloop
  endfacet
  facet normal -1 -2.22045e-16 9.86076e-32
    outer loop
      vertex 32.05 2.31643 -5.14351e-16
      vertex 32.05 4.68357 1.55
      vertex 32.05 4.68357 -1.03996e-15
    endloop
  endfacet
  facet normal -0.5 0.866025 -3.84593e-16
    outer loop
      vertex 32.05 2.31643 1.55
      vertex 32.05 2.31643 -5.14351e-16
      vertex 30 1.13286 1.55
    endloop
  endfacet
  facet normal -0.5 0.866025 -3.84593e-16
    outer loop
      vertex 30 1.13286 1.55
      vertex 32.05 2.31643 -5.14351e-16
      vertex 30 1.13286 -2.51546e-16
    endloop
  endfacet
  facet normal 0.5 0.866025 -3.84593e-16
    outer loop
      vertex 30 1.13286 1.55
      vertex 30 1.13286 -2.51546e-16
      vertex 27.95 2.31643 1.55
    endloop
  endfacet
  facet normal 0.5 0.866025 -3.84593e-16
    outer loop
      vertex 27.95 2.31643 1.55
      vertex 30 1.13286 -2.51546e-16
      vertex 27.95 2.31643 -5.14351e-16
    endloop
  endfacet
  facet normal 1 0 0
    outer loop
      vertex 14 -1.73526 3
      vertex 14 3.33067e-16 3
      vertex 14 2.9976e-15 15
    endloop
  endfacet
  facet normal 1 0 0
    outer loop
      vertex 14 -1.78956 5.30401
      vertex 14 -1.73526 3
      vertex 14 2.9976e-15 15
    endloop
  endfacet
  facet normal 1 0 0
    outer loop
      vertex 14 -13.4662 3
      vertex 14 -8.77947 3
      vertex 14 -13.4662 15
    endloop
  endfacet
  facet normal 1 0 0
    outer loop
      vertex 14 -8.77947 3
      vertex 14 -8.83804 5.48492
      vertex 14 -13.4662 15
    endloop
  endfacet
  facet normal 1 0 0
    outer loop
      vertex 14 -8.83804 5.48492
      vertex 14 -6.82658 7.67993
      vertex 14 -13.4662 15
    endloop
  endfacet
  facet normal 1 0 0
    outer loop
      vertex 14 -13.4662 15
      vertex 14 -3.907 7.605
      vertex 14 2.9976e-15 15
    endloop
  endfacet
  facet normal 1 0 0
    outer loop
      vertex 14 -3.907 7.605
      vertex 14 -1.78956 5.30401
      vertex 14 2.9976e-15 15
    endloop
  endfacet
  facet normal 1 0 0
    outer loop
      vertex 14 -6.82658 7.67993
      vertex 14 -3.907 7.605
      vertex 14 -13.4662 15
    endloop
  endfacet
  facet normal 0 1 -2.22045e-16
    outer loop
      vertex -14 3.33067e-16 3
      vertex 0 8.04571e-16 5.12347
      vertex 14 3.33067e-16 3
    endloop
  endfacet
  facet normal 0 1 -2.22045e-16
    outer loop
      vertex -14 3.33067e-16 3
      vertex -14 2.30528e-15 11.8821
      vertex 0 8.04571e-16 5.12347
    endloop
  endfacet
  facet normal 0 1 -2.22045e-16
    outer loop
      vertex 14 3.33067e-16 3
      vertex 4.44857 2.9976e-15 15
      vertex 14 2.9976e-15 15
    endloop
  endfacet
  facet normal 0 1 -2.22045e-16
    outer loop
      vertex 4.44857 2.9976e-15 15
      vertex 14 3.33067e-16 3
      vertex 0 8.04571e-16 5.12347
    endloop
  endfacet
  facet normal -1 0 0
    outer loop
      vertex -14 3.33067e-16 3
      vertex -14 -9.82649 3
      vertex -14 2.30528e-15 11.8821
    endloop
  endfacet
  facet normal -1 0 0
    outer loop
      vertex -14 2.30528e-15 11.8821
      vertex -14 -9.82649 3
      vertex -14 -9.82649 9.24907
    endloop
  endfacet
  facet normal 0.5 0.866025 -3.84593e-16
    outer loop
      vertex -20 -1.1188 3
      vertex -20 -1.1188 1.55
      vertex -24 1.1906 3
    endloop
  endfacet
  facet normal 0.5 0.866025 -3.84593e-16
    outer loop
      vertex -24 1.1906 3
      vertex -20 -1.1188 1.55
      vertex -24 1.1906 1.55
    endloop
  endfacet
  facet normal 1 2.22045e-16 -9.86076e-32
    outer loop
      vertex -24 5.8094 3
      vertex -24 1.1906 3
      vertex -24 1.1906 1.55
    endloop
  endfacet
  facet normal 1 2.22045e-16 -9.86076e-32
    outer loop
      vertex -24 5.8094 1.55
      vertex -24 5.8094 3
      vertex -24 1.1906 1.55
    endloop
  endfacet
  facet normal -0.5 0.866025 -3.84593e-16
    outer loop
      vertex -16 1.1906 3
      vertex -16 1.1906 1.55
      vertex -20 -1.1188 3
    endloop
  endfacet
  facet normal -0.5 0.866025 -3.84593e-16
    outer loop
      vertex -20 -1.1188 3
      vertex -16 1.1906 1.55
      vertex -20 -1.1188 1.55
    endloop
  endfacet
  facet normal -1 -2.22045e-16 9.86076e-32
    outer loop
      vertex -16 1.1906 3
      vertex -16 5.8094 3
      vertex -16 1.1906 1.55
    endloop
  endfacet
  facet normal -1 -2.22045e-16 9.86076e-32
    outer loop
      vertex -16 1.1906 1.55
      vertex -16 5.8094 3
      vertex -16 5.8094 1.55
    endloop
  endfacet
  facet normal -0.5 -0.866025 3.84593e-16
    outer loop
      vertex -16 5.8094 1.55
      vertex -16 5.8094 3
      vertex -20 8.1188 3
    endloop
  endfacet
  facet normal -0.5 -0.866025 3.84593e-16
    outer loop
      vertex -20 8.1188 1.55
      vertex -16 5.8094 1.55
      vertex -20 8.1188 3
    endloop
  endfacet
  facet normal 0.5 -0.866025 3.84593e-16
    outer loop
      vertex -20 8.1188 1.55
      vertex -20 8.1188 3
      vertex -24 5.8094 3
    endloop
  endfacet
  facet normal 0.5 -0.866025 3.84593e-16
    outer loop
      vertex -24 5.8094 1.55
      vertex -20 8.1188 1.55
      vertex -24 5.8094 3
    endloop
  endfacet
  facet normal 0.5 0.866025 -3.84593e-16
    outer loop
      vertex 30 -1.1188 3
      vertex 30 -1.1188 1.55
      vertex 26 1.1906 3
    endloop
  endfacet
  facet normal 0.5 0.866025 -3.84593e-16
    outer loop
      vertex 26 1.1906 3
      vertex 30 -1.1188 1.55
      vertex 26 1.1906 1.55
    endloop
  endfacet
  facet normal 1 2.22045e-16 -9.86076e-32
    outer loop
      vertex 26 5.8094 3
      vertex 26 1.1906 3
      vertex 26 1.1906 1.55
    endloop
  endfacet
  facet normal 1 2.22045e-16 -9.86076e-32
    outer loop
      vertex 26 5.8094 1.55
      vertex 26 5.8094 3
      vertex 26 1.1906 1.55
    endloop
  endfacet
  facet normal -0.5 0.866025 -3.84593e-16
    outer loop
      vertex 34 1.1906 3
      vertex 34 1.1906 1.55
      vertex 30 -1.1188 3
    endloop
  endfacet
  facet normal -0.5 0.866025 -3.84593e-16
    outer loop
      vertex 30 -1.1188 3
      vertex 34 1.1906 1.55
      vertex 30 -1.1188 1.55
    endloop
  endfacet
  facet normal -1 -2.22045e-16 9.86076e-32
    outer loop
      vertex 34 1.1906 3
      vertex 34 5.8094 3
      vertex 34 1.1906 1.55
    endloop
  endfacet
  facet normal -1 -2.22045e-16 9.86076e-32
    outer loop
      vertex 34 1.1906 1.55
      vertex 34 5.8094 3
      vertex 34 5.8094 1.55
    endloop
  endfacet
  facet normal -0.5 -0.866025 3.84593e-16
    outer loop
      vertex 34 5.8094 1.55
      vertex 34 5.8094 3
      vertex 30 8.1188 3
    endloop
  endfacet
  facet normal -0.5 -0.866025 3.84593e-16
    outer loop
      vertex 30 8.1188 1.55
      vertex 34 5.8094 1.55
      vertex 30 8.1188 3
    endloop
  endfacet
  facet normal 0.5 -0.866025 3.84593e-16
    outer loop
      vertex 30 8.1188 1.55
      vertex 30 8.1188 3
      vertex 26 5.8094 3
    endloop
  endfacet
  facet normal 0.5 -0.866025 3.84593e-16
    outer loop
      vertex 26 5.8094 1.55
      vertex 30 8.1188 1.55
      vertex 26 5.8094 3
    endloop
  endfacet
  facet normal 0.422618 -0.23457 0.875426
    outer loop
      vertex 0 -14.9221 1.12511
      vertex 0 8.04571e-16 5.12347
      vertex -14 2.30528e-15 11.8821
    endloop
  endfacet
  facet normal 0.422618 -0.23457 0.875426
    outer loop
      vertex -14 -9.82649 9.24907
      vertex 0 -14.9221 1.12511
      vertex -14 2.30528e-15 11.8821
    endloop
  endfacet
  facet normal -0.906308 -0.109382 0.408218
    outer loop
      vertex 3.09822 -5.98564 10.3982
      vertex 6.13822 -14 15
      vertex 4.44857 2.9976e-15 15
    endloop
  endfacet
  facet normal -0.906308 -0.109382 0.408218
    outer loop
      vertex 2.10408 -5.13472 8.41901
      vertex 4.44857 2.9976e-15 15
      vertex 0 8.04571e-16 5.12347
    endloop
  endfacet
  facet normal -0.906308 -0.109382 0.408218
    outer loop
      vertex 0.733201 -14 3
      vertex 0 8.04571e-16 5.12347
      vertex 0 -14.9221 1.12511
    endloop
  endfacet
  facet normal -0.906308 -0.109382 0.408218
    outer loop
      vertex 0.733201 -14 3
      vertex 0 -14.9221 1.12511
      vertex 0.883286 -15.2436 3
    endloop
  endfacet
  facet normal -0.906308 -0.109382 0.408218
    outer loop
      vertex 3.09822 -5.98564 10.3982
      vertex 4.44857 2.9976e-15 15
      vertex 2.62826 -5.10464 9.59082
    endloop
  endfacet
  facet normal -0.906308 -0.109382 0.408218
    outer loop
      vertex 0.733201 -14 3
      vertex 1.83275 -6.05826 7.56914
      vertex 0 8.04571e-16 5.12347
    endloop
  endfacet
  facet normal -0.906308 -0.109382 0.408218
    outer loop
      vertex 1.83275 -6.05826 7.56914
      vertex 2.10408 -5.13472 8.41901
      vertex 0 8.04571e-16 5.12347
    endloop
  endfacet
  facet normal -0.906308 -0.109382 0.408218
    outer loop
      vertex 3.23867 -7.26165 10.3681
      vertex 6.13822 -14 15
      vertex 3.09822 -5.98564 10.3982
    endloop
  endfacet
  facet normal -0.906308 -0.109382 0.408218
    outer loop
      vertex 2.44316 -8.21526 8.3464
      vertex 0.733201 -14 3
      vertex 2.96734 -8.18519 9.51821
    endloop
  endfacet
  facet normal -0.906308 -0.109382 0.408218
    outer loop
      vertex 2.96734 -8.18519 9.51821
      vertex 6.13822 -14 15
      vertex 3.23867 -7.26165 10.3681
    endloop
  endfacet
  facet normal -0.906308 -0.109382 0.408218
    outer loop
      vertex 0.733201 -14 3
      vertex 6.13822 -14 15
      vertex 2.96734 -8.18519 9.51821
    endloop
  endfacet
  facet normal -0.906308 -0.109382 0.408218
    outer loop
      vertex 1.9732 -7.33426 7.53907
      vertex 0.733201 -14 3
      vertex 2.44316 -8.21526 8.3464
    endloop
  endfacet
  facet normal -0.906308 -0.109382 0.408218
    outer loop
      vertex 0.733201 -14 3
      vertex 1.9732 -7.33426 7.53907
      vertex 1.83275 -6.05826 7.56914
    endloop
  endfacet
  facet normal -0.906308 -0.109382 0.408218
    outer loop
      vertex 2.62826 -5.10464 9.59082
      vertex 4.44857 2.9976e-15 15
      vertex 2.10408 -5.13472 8.41901
    endloop
  endfacet
  facet normal 0 2.22045e-16 1
    outer loop
      vertex 12.5334 -14 3
      vertex 0.733201 -14 3
      vertex 0.883286 -15.2436 3
    endloop
  endfacet
  facet normal 0 2.22045e-16 1
    outer loop
      vertex 5 -16.7419 3
      vertex 12.5334 -14 3
      vertex 0.883286 -15.2436 3
    endloop
  endfacet
  facet normal 0 -1 2.22045e-16
    outer loop
      vertex 6.13822 -14 15
      vertex 0.733201 -14 3
      vertex 12.5334 -14 3
    endloop
  endfacet
  facet normal 0 -1 2.22045e-16
    outer loop
      vertex 12.5334 -14 15
      vertex 6.13822 -14 15
      vertex 12.5334 -14 3
    endloop
  endfacet
  facet normal 0 2.22045e-16 1
    outer loop
      vertex 14 2.9976e-15 15
      vertex 4.44857 2.9976e-15 15
      vertex 6.13822 -14 15
    endloop
  endfacet
  facet normal 0 2.22045e-16 1
    outer loop
      vertex 14 -13.4662 15
      vertex 14 2.9976e-15 15
      vertex 12.5334 -14 15
    endloop
  endfacet
  facet normal 0 2.22045e-16 1
    outer loop
      vertex 12.5334 -14 15
      vertex 14 2.9976e-15 15
      vertex 6.13822 -14 15
    endloop
  endfacet
  facet normal 0 4.44089e-16 1
    outer loop
      vertex -20 1.13286 1.55
      vertex -20 -1.1188 1.55
      vertex -16 1.1906 1.55
    endloop
  endfacet
  facet normal 0 4.44089e-16 1
    outer loop
      vertex -17.95 2.31643 1.55
      vertex -20 1.13286 1.55
      vertex -16 1.1906 1.55
    endloop
  endfacet
  facet normal 0 4.44089e-16 1
    outer loop
      vertex -24 5.8094 1.55
      vertex -22.05 4.68357 1.55
      vertex -20 8.1188 1.55
    endloop
  endfacet
  facet normal 0 4.44089e-16 1
    outer loop
      vertex -24 5.8094 1.55
      vertex -24 1.1906 1.55
      vertex -22.05 4.68357 1.55
    endloop
  endfacet
  facet normal 0 4.44089e-16 1
    outer loop
      vertex -20 8.1188 1.55
      vertex -20 5.86714 1.55
      vertex -16 5.8094 1.55
    endloop
  endfacet
  facet normal 0 4.44089e-16 1
    outer loop
      vertex -16 5.8094 1.55
      vertex -17.95 4.68357 1.55
      vertex -16 1.1906 1.55
    endloop
  endfacet
  facet normal 0 4.44089e-16 1
    outer loop
      vertex -17.95 4.68357 1.55
      vertex -17.95 2.31643 1.55
      vertex -16 1.1906 1.55
    endloop
  endfacet
  facet normal 0 4.44089e-16 1
    outer loop
      vertex -24 1.1906 1.55
      vertex -20 -1.1188 1.55
      vertex -20 1.13286 1.55
    endloop
  endfacet
  facet normal 0 4.44089e-16 1
    outer loop
      vertex -20 1.13286 1.55
      vertex -22.05 2.31643 1.55
      vertex -24 1.1906 1.55
    endloop
  endfacet
  facet normal 0 4.44089e-16 1
    outer loop
      vertex -20 5.86714 1.55
      vertex -17.95 4.68357 1.55
      vertex -16 5.8094 1.55
    endloop
  endfacet
  facet normal 0 4.44089e-16 1
    outer loop
      vertex -22.05 4.68357 1.55
      vertex -20 5.86714 1.55
      vertex -20 8.1188 1.55
    endloop
  endfacet
  facet normal 0 4.44089e-16 1
    outer loop
      vertex -22.05 2.31643 1.55
      vertex -22.05 4.68357 1.55
      vertex -24 1.1906 1.55
    endloop
  endfacet
  facet normal 0.906308 0.109382 -0.408218
    outer loop
      vertex 5.18629 -2.77835 6.0947
      vertex 6.36992 -2.71043 8.74074
      vertex 7.43113 -4.6998 10.5637
    endloop
  endfacet
  facet normal 0.906308 0.109382 -0.408218
    outer loop
      vertex 7.13559 -9.6665 8.57678
      vertex 6.59257 -7.74766 7.88534
      vertex 7.74828 -7.58109 10.4958
    endloop
  endfacet
  facet normal 0.906308 0.109382 -0.408218
    outer loop
      vertex 6.25349 -4.66711 7.95795
      vertex 5.18629 -2.77835 6.0947
      vertex 7.43113 -4.6998 10.5637
    endloop
  endfacet
  facet normal 0.906308 0.109382 -0.408218
    outer loop
      vertex 6.8639 -6.82412 8.73521
      vertex 6.72345 -5.54812 8.76528
      vertex 7.74828 -7.58109 10.4958
    endloop
  endfacet
  facet normal 0.906308 0.109382 -0.408218
    outer loop
      vertex 4.5736 -4.86376 4.17565
      vertex 5.18629 -2.77835 6.0947
      vertex 4.89075 -7.74505 4.10774
    endloop
  endfacet
  facet normal 0.906308 0.109382 -0.408218
    outer loop
      vertex 4.89075 -7.74505 4.10774
      vertex 5.59843 -6.89673 5.9062
      vertex 5.95196 -9.73442 5.93074
    endloop
  endfacet
  facet normal 0.906308 0.109382 -0.408218
    outer loop
      vertex 5.95196 -9.73442 5.93074
      vertex 6.06839 -7.77773 6.71353
      vertex 7.13559 -9.6665 8.57678
    endloop
  endfacet
  facet normal 0.906308 0.109382 -0.408218
    outer loop
      vertex 6.06839 -7.77773 6.71353
      vertex 6.59257 -7.74766 7.88534
      vertex 7.13559 -9.6665 8.57678
    endloop
  endfacet
  facet normal 0.906308 0.109382 -0.408218
    outer loop
      vertex 6.59257 -7.74766 7.88534
      vertex 6.8639 -6.82412 8.73521
      vertex 7.74828 -7.58109 10.4958
    endloop
  endfacet
  facet normal 0.906308 0.109382 -0.408218
    outer loop
      vertex 7.74828 -7.58109 10.4958
      vertex 6.72345 -5.54812 8.76528
      vertex 7.43113 -4.6998 10.5637
    endloop
  endfacet
  facet normal 0.906308 0.109382 -0.408218
    outer loop
      vertex 6.72345 -5.54812 8.76528
      vertex 6.25349 -4.66711 7.95795
      vertex 7.43113 -4.6998 10.5637
    endloop
  endfacet
  facet normal 0.906308 0.109382 -0.408218
    outer loop
      vertex 5.72931 -4.69719 6.78614
      vertex 5.45798 -5.62073 5.93627
      vertex 5.18629 -2.77835 6.0947
    endloop
  endfacet
  facet normal 0.906308 0.109382 -0.408218
    outer loop
      vertex 4.89075 -7.74505 4.10774
      vertex 5.45798 -5.62073 5.93627
      vertex 5.59843 -6.89673 5.9062
    endloop
  endfacet
  facet normal 0.906308 0.109382 -0.408218
    outer loop
      vertex 4.89075 -7.74505 4.10774
      vertex 5.18629 -2.77835 6.0947
      vertex 5.45798 -5.62073 5.93627
    endloop
  endfacet
  facet normal 0.906308 0.109382 -0.408218
    outer loop
      vertex 5.59843 -6.89673 5.9062
      vertex 6.06839 -7.77773 6.71353
      vertex 5.95196 -9.73442 5.93074
    endloop
  endfacet
  facet normal 0.906308 0.109382 -0.408218
    outer loop
      vertex 6.25349 -4.66711 7.95795
      vertex 5.72931 -4.69719 6.78614
      vertex 5.18629 -2.77835 6.0947
    endloop
  endfacet
  facet normal -0.211309 -0.719231 -0.661857
    outer loop
      vertex 14 -1.78956 5.30401
      vertex 14 -3.907 7.605
      vertex 7.43113 -4.6998 10.5637
    endloop
  endfacet
  facet normal -0.211309 -0.719231 -0.661857
    outer loop
      vertex 6.36992 -2.71043 8.74074
      vertex 14 -1.78956 5.30401
      vertex 7.43113 -4.6998 10.5637
    endloop
  endfacet
  facet normal -0.365998 0.686106 -0.628732
    outer loop
      vertex 14 -6.82658 7.67993
      vertex 14 -8.83804 5.48492
      vertex 7.74828 -7.58109 10.4958
    endloop
  endfacet
  facet normal -0.365998 0.686106 -0.628732
    outer loop
      vertex 7.74828 -7.58109 10.4958
      vertex 14 -8.83804 5.48492
      vertex 7.13559 -9.6665 8.57678
    endloop
  endfacet
  facet normal 0 4.44089e-16 1
    outer loop
      vertex 30 1.13286 1.55
      vertex 30 -1.1188 1.55
      vertex 34 1.1906 1.55
    endloop
  endfacet
  facet normal 0 4.44089e-16 1
    outer loop
      vertex 32.05 2.31643 1.55
      vertex 30 1.13286 1.55
      vertex 34 1.1906 1.55
    endloop
  endfacet
  facet normal 0 4.44089e-16 1
    outer loop
      vertex 26 5.8094 1.55
      vertex 27.95 4.68357 1.55
      vertex 30 8.1188 1.55
    endloop
  endfacet
  facet normal 0 4.44089e-16 1
    outer loop
      vertex 26 5.8094 1.55
      vertex 26 1.1906 1.55
      vertex 27.95 4.68357 1.55
    endloop
  endfacet
  facet normal 0 4.44089e-16 1
    outer loop
      vertex 30 8.1188 1.55
      vertex 30 5.86714 1.55
      vertex 34 5.8094 1.55
    endloop
  endfacet
  facet normal 0 4.44089e-16 1
    outer loop
      vertex 34 5.8094 1.55
      vertex 32.05 4.68357 1.55
      vertex 34 1.1906 1.55
    endloop
  endfacet
  facet normal 0 4.44089e-16 1
    outer loop
      vertex 32.05 4.68357 1.55
      vertex 32.05 2.31643 1.55
      vertex 34 1.1906 1.55
    endloop
  endfacet
  facet normal 0 4.44089e-16 1
    outer loop
      vertex 26 1.1906 1.55
      vertex 30 -1.1188 1.55
      vertex 30 1.13286 1.55
    endloop
  endfacet
  facet normal 0 4.44089e-16 1
    outer loop
      vertex 30 1.13286 1.55
      vertex 27.95 2.31643 1.55
      vertex 26 1.1906 1.55
    endloop
  endfacet
  facet normal 0 4.44089e-16 1
    outer loop
      vertex 30 5.86714 1.55
      vertex 32.05 4.68357 1.55
      vertex 34 5.8094 1.55
    endloop
  endfacet
  facet normal 0 4.44089e-16 1
    outer loop
      vertex 27.95 4.68357 1.55
      vertex 30 5.86714 1.55
      vertex 30 8.1188 1.55
    endloop
  endfacet
  facet normal 0 4.44089e-16 1
    outer loop
      vertex 27.95 2.31643 1.55
      vertex 27.95 4.68357 1.55
      vertex 26 1.1906 1.55
    endloop
  endfacet
  facet normal -0.408218 -0.0234232 -0.912584
    outer loop
      vertex 14 -6.82658 7.67993
      vertex 7.74828 -7.58109 10.4958
      vertex 14 -3.907 7.605
    endloop
  endfacet
  facet normal -0.408218 -0.0234232 -0.912584
    outer loop
      vertex 14 -3.907 7.605
      vertex 7.74828 -7.58109 10.4958
      vertex 7.43113 -4.6998 10.5637
    endloop
  endfacet
  facet normal 0.408218 0.0234228 0.912584
    outer loop
      vertex 1.9732 -7.33426 7.53907
      vertex 5.59843 -6.89673 5.9062
      vertex 5.45798 -5.62073 5.93627
    endloop
  endfacet
  facet normal 0.408218 0.0234228 0.912584
    outer loop
      vertex 1.83275 -6.05826 7.56914
      vertex 1.9732 -7.33426 7.53907
      vertex 5.45798 -5.62073 5.93627
    endloop
  endfacet
  facet normal 0.365998 -0.686106 0.628732
    outer loop
      vertex 5.45798 -5.62073 5.93627
      vertex 5.72931 -4.69719 6.78614
      vertex 2.10408 -5.13472 8.41901
    endloop
  endfacet
  facet normal 0.365998 -0.686106 0.628732
    outer loop
      vertex 1.83275 -6.05826 7.56914
      vertex 5.45798 -5.62073 5.93627
      vertex 2.10408 -5.13472 8.41901
    endloop
  endfacet
  facet normal 0.211309 0.719232 0.661857
    outer loop
      vertex 6.06839 -7.77773 6.71353
      vertex 5.59843 -6.89673 5.9062
      vertex 2.44316 -8.21526 8.3464
    endloop
  endfacet
  facet normal 0.211309 0.719232 0.661857
    outer loop
      vertex 2.44316 -8.21526 8.3464
      vertex 5.59843 -6.89673 5.9062
      vertex 1.9732 -7.33426 7.53907
    endloop
  endfacet
  facet normal -0.109382 0.993724 0.0234233
    outer loop
      vertex 6.59257 -7.74766 7.88534
      vertex 6.06839 -7.77773 6.71353
      vertex 2.96734 -8.18519 9.51821
    endloop
  endfacet
  facet normal -0.109382 0.993724 0.0234233
    outer loop
      vertex 2.96734 -8.18519 9.51821
      vertex 6.06839 -7.77773 6.71353
      vertex 2.44316 -8.21526 8.3464
    endloop
  endfacet
  facet normal -0.365998 0.686106 -0.628732
    outer loop
      vertex 6.8639 -6.82412 8.73521
      vertex 6.59257 -7.74766 7.88534
      vertex 3.23867 -7.26165 10.3681
    endloop
  endfacet
  facet normal -0.365998 0.686106 -0.628732
    outer loop
      vertex 3.23867 -7.26165 10.3681
      vertex 6.59257 -7.74766 7.88534
      vertex 2.96734 -8.18519 9.51821
    endloop
  endfacet
  facet normal -0.408218 -0.0234228 -0.912584
    outer loop
      vertex 6.8639 -6.82412 8.73521
      vertex 3.23867 -7.26165 10.3681
      vertex 6.72345 -5.54812 8.76528
    endloop
  endfacet
  facet normal -0.408218 -0.0234228 -0.912584
    outer loop
      vertex 6.72345 -5.54812 8.76528
      vertex 3.23867 -7.26165 10.3681
      vertex 3.09822 -5.98564 10.3982
    endloop
  endfacet
  facet normal -0.211309 -0.719232 -0.661857
    outer loop
      vertex 6.25349 -4.66711 7.95795
      vertex 6.72345 -5.54812 8.76528
      vertex 3.09822 -5.98564 10.3982
    endloop
  endfacet
  facet normal -0.211309 -0.719232 -0.661857
    outer loop
      vertex 2.62826 -5.10464 9.59082
      vertex 6.25349 -4.66711 7.95795
      vertex 3.09822 -5.98564 10.3982
    endloop
  endfacet
  facet normal 0.109382 -0.993724 -0.0234233
    outer loop
      vertex 5.72931 -4.69719 6.78614
      vertex 6.25349 -4.66711 7.95795
      vertex 2.62826 -5.10464 9.59082
    endloop
  endfacet
  facet normal 0.109382 -0.993724 -0.0234233
    outer loop
      vertex 2.10408 -5.13472 8.41901
      vertex 5.72931 -4.69719 6.78614
      vertex 2.62826 -5.10464 9.59082
    endloop
  endfacet
endsolid OpenSCAD_Model
